<?xml version="1.0" encoding="UTF-8" standalone="no"?>
<!-- Created with Inkscape (http://www.inkscape.org/) -->

<svg
   xmlns:dc="http://purl.org/dc/elements/1.1/"
   xmlns:cc="http://creativecommons.org/ns#"
   xmlns:rdf="http://www.w3.org/1999/02/22-rdf-syntax-ns#"
   xmlns:svg="http://www.w3.org/2000/svg"
   xmlns="http://www.w3.org/2000/svg"
   xmlns:xlink="http://www.w3.org/1999/xlink"
   xmlns:sodipodi="http://sodipodi.sourceforge.net/DTD/sodipodi-0.dtd"
   xmlns:inkscape="http://www.inkscape.org/namespaces/inkscape"
   sodipodi:docname="Neuron.svg"
   inkscape:version="0.92.3 (unknown)"
   id="svg9783"
   version="1.1"
   viewBox="0 0 93.346405 53.784935"
   height="53.784935mm"
   width="93.346405mm">
  <title
     id="title1054">Neuron</title>
  <defs
     id="defs9777">
    <inkscape:path-effect
       fuse_tolerance="0"
       vertical_pattern="false"
       prop_units="false"
       tang_offset="0"
       normal_offset="0"
       spacing="0"
       scale_y_rel="false"
       prop_scale="0.60440869"
       copytype="single_stretched"
       pattern="m 20.948886,22.688706 c 1.14857,2.57586 27.625561,1.79727 48.75331,1.91571 21.170041,0.11867 41.257654,1.08278 41.651144,-0.21916 l 0.0491,3.57687 c -0.4205,-1.52329 -19.991553,-1.08748 -40.619243,-1.24177 -21.60932,-0.16164 -48.452481,0.15393 -49.834301,2.84013 z"
       is_visible="true"
       id="path-effect1037"
       effect="skeletal" />
    <inkscape:path-effect
       effect="skeletal"
       id="path-effect1013"
       is_visible="true"
       pattern="m -42.360261,-25.110561 c 1.14857,2.57586 27.625561,1.79727 48.7533094,1.91571 21.1700416,0.11867 41.2576526,1.08278 41.6511406,-0.21916 l 0.0491,3.57687 c -0.420498,-1.52329 -19.991549,-1.08748 -40.6192395,-1.24177 -21.6093195,-0.16164 -48.4524805,0.15393 -49.8343005,2.84013 z"
       copytype="single_stretched"
       prop_scale="0.60440869"
       scale_y_rel="false"
       spacing="0"
       normal_offset="0"
       tang_offset="0"
       prop_units="false"
       vertical_pattern="false"
       fuse_tolerance="0" />
    <inkscape:path-effect
       effect="skeletal"
       id="path-effect983"
       is_visible="true"
       pattern="m 27.843496,-32.670966 c 1.14857,2.57586 27.625561,1.79727 48.75331,1.91571 21.170041,0.11867 41.257654,1.08278 41.651144,-0.21916 l 0.0491,3.57687 c -0.4205,-1.52329 -19.991553,-1.08748 -40.619243,-1.24177 -21.60932,-0.16164 -48.452481,0.15393 -49.834301,2.84013 z"
       copytype="single_stretched"
       prop_scale="0.60440869"
       scale_y_rel="false"
       spacing="0"
       normal_offset="0"
       tang_offset="0"
       prop_units="false"
       vertical_pattern="false"
       fuse_tolerance="0" />
    <linearGradient
       inkscape:collect="always"
       id="linearGradient927">
      <stop
         style="stop-color:#6f9daa;stop-opacity:1"
         offset="0"
         id="stop923" />
      <stop
         style="stop-color:#8cb1bb;stop-opacity:1"
         offset="1"
         id="stop925" />
    </linearGradient>
    <inkscape:path-effect
       fuse_tolerance="0"
       vertical_pattern="false"
       prop_units="false"
       tang_offset="0"
       normal_offset="0"
       spacing="0"
       scale_y_rel="false"
       prop_scale="0.60440869"
       copytype="single_stretched"
       pattern="m -39.021901,-50.737387 c 1.14857,2.57586 27.625561,1.79727 48.7533099,1.91571 21.1700411,0.11867 41.2576521,1.08278 41.6511401,-0.21916 l 0.0491,3.57687 c -0.420498,-1.52329 -19.991549,-1.08748 -40.619239,-1.24177 -21.60932,-0.16164 -48.452481,0.15393 -49.834301,2.84013 z"
       is_visible="true"
       id="path-effect903"
       effect="skeletal" />
    <inkscape:path-effect
       effect="skeletal"
       id="path-effect866"
       is_visible="true"
       pattern="m -68.927326,-1.5650371 c 1.14857,2.57586 27.625561,1.79726998 48.75331,1.91570998 21.17004064,0.11867 41.257652,1.08278012 41.65114,-0.21916 l 0.0491,3.57686992 C 21.105726,2.185093 1.5346746,2.620903 -19.093015,2.4666128 -40.702335,2.304973 -67.545496,2.6205429 -68.927316,5.3067429 Z"
       copytype="single_stretched"
       prop_scale="0.60440869"
       scale_y_rel="false"
       spacing="0"
       normal_offset="0"
       tang_offset="0"
       prop_units="false"
       vertical_pattern="false"
       fuse_tolerance="0" />
    <inkscape:path-effect
       effect="powerstroke"
       id="path-effect848"
       is_visible="true"
       offset_points="1,0.13229166"
       sort_points="true"
       interpolator_type="CubicBezierJohan"
       interpolator_beta="0.2"
       start_linecap_type="zerowidth"
       linejoin_type="extrp_arc"
       miter_limit="4"
       end_linecap_type="zerowidth" />
    <inkscape:path-effect
       effect="powerstroke"
       id="path-effect839"
       is_visible="true"
       offset_points="0.74204524,0.88005327"
       sort_points="true"
       interpolator_type="CubicBezierJohan"
       interpolator_beta="0.2"
       start_linecap_type="zerowidth"
       linejoin_type="extrp_arc"
       miter_limit="4"
       end_linecap_type="zerowidth" />
    <filter
       inkscape:collect="always"
       style="color-interpolation-filters:sRGB"
       id="filter891"
       x="-0.060003981"
       width="1.120008"
       y="-0.05999602"
       height="1.119992">
      <feGaussianBlur
         inkscape:collect="always"
         stdDeviation="0.84456744"
         id="feGaussianBlur893" />
    </filter>
    <clipPath
       clipPathUnits="userSpaceOnUse"
       id="clipPath897">
      <path
         sodipodi:nodetypes="ccccccccsccccccccccccccccccccccccccccccccsccccccccccccccccccccccccsccccccccccccccsccccccccccccccscccccccsccccccccccccccscccczscccccccccccccsccsccccccc"
         inkscape:connector-curvature="0"
         id="path899"
         d="m 93.046002,126.34955 c -0.421928,-0.0342 -0.665953,0.41277 -0.710988,0.7756 -0.616183,1.70347 -1.47035,3.3386 -2.626723,4.73785 -1.155004,1.01602 -2.755272,1.38391 -4.259648,1.29127 -0.508371,0.002 -1.018419,0.0637 -1.524863,0.0312 -0.257143,-0.21715 -0.02694,-0.55299 -0.02408,-0.82269 0.165518,-0.89431 0.266557,-1.81412 0.564073,-2.67361 0.835102,-0.94797 2.156868,-1.2919 3.381923,-1.27407 0.436044,-0.0225 0.872106,-0.045 1.308126,-0.0675 0.197835,-0.29311 -0.197932,-0.65746 -0.495919,-0.53293 -1.286015,-0.0226 -2.600703,0.0895 -3.814199,0.53039 -1.106178,0.71337 -1.699588,2.02228 -1.751417,3.30586 -0.136493,0.63385 -0.139126,1.31775 -0.427882,1.90945 -0.475059,0.49603 -0.916752,1.05048 -1.515149,1.40332 -1.249664,0.035 -2.548869,-0.25891 -3.5599,-1.01972 -0.522092,-0.67877 -0.181189,-1.75273 0.568267,-2.10846 1.121418,-0.8064 2.453854,-1.40917 3.281886,-2.54946 0.381095,-0.532 0.664623,-1.12727 0.853546,-1.75459 -0.179803,-0.21432 -0.514795,-0.0137 -0.560528,0.21861 -0.766024,1.44207 -2.051288,2.57078 -3.525411,3.255 -0.208103,0.11243 -0.433584,0.30905 -0.677715,0.26831 -0.105251,-0.16099 0.02175,-0.38691 0.03724,-0.5697 0.221065,-1.28558 0.48722,-2.60039 0.311672,-3.90262 -0.449861,-1.59549 -1.136381,-3.12456 -2.034175,-4.51853 -0.282295,-0.18475 -0.596636,0.29736 -0.345983,0.49755 0.706853,1.54547 1.365023,3.17965 1.371992,4.90193 0.0066,0.29861 0.08214,0.65277 -0.09593,0.90953 -0.33142,0.19458 -0.647462,-0.12506 -0.955056,-0.22051 -0.707459,-0.31915 -1.470774,-0.57499 -2.07981,-1.07164 -0.854784,-0.97401 -1.466805,-2.13034 -2.002523,-3.30244 -0.257495,-0.20423 -0.650272,0.20436 -0.441457,0.45572 0.395922,1.43235 1.019622,2.88599 2.209308,3.83557 0.744307,0.58535 1.687888,0.87636 2.512457,1.3432 0.442753,0.41519 0.406437,1.08472 0.299389,1.63117 -0.02942,0.27155 0.01786,0.61822 -0.223576,0.80645 -0.302654,0.078 -0.418219,-0.27218 -0.563631,-0.46012 -0.65772,-0.90136 -1.775685,-1.45043 -2.900352,-1.3584 -0.158512,0.002 -0.410612,-0.0778 -0.508815,0.074 0.07945,0.20632 0.361778,0.11349 0.53258,0.16758 0.619318,0.0976 1.309888,0.10656 1.82186,0.51244 0.866037,0.86407 1.607526,1.91638 1.874803,3.12666 -0.03263,0.72983 -0.62112,1.24981 -1.138671,1.68907 -0.539526,0.50324 -0.971431,1.12702 -1.484421,1.65907 -0.662583,0.42616 -1.634469,0.0615 -1.915573,-0.65825 -0.697971,-1.15299 -0.666676,-2.54347 -0.884052,-3.83177 -0.113065,-0.74584 -0.219859,-1.57995 -0.803717,-2.11396 -0.380717,-0.34797 -0.87933,-0.63038 -1.411603,-0.55511 -0.209716,0.21515 0.04637,0.57786 0.316103,0.54437 0.538729,0.15449 0.941732,0.6632 0.971397,1.2217 0.171884,0.8344 0.1539,1.69743 0.178927,2.54179 -0.393922,0.34015 -0.997929,0.20383 -1.399865,-0.0537 -0.390507,-0.28884 -0.49293,-0.79225 -0.632683,-1.22386 -0.158641,-0.15484 -0.41284,0.0655 -0.334161,0.25367 0.06072,0.71444 0.427099,1.47734 1.137936,1.7361 0.495792,0.17843 1.122884,0.25857 1.403776,0.76617 0.10018,0.23277 0.34108,0.46792 0.255495,0.73638 -0.267671,0.33421 -0.73974,0.2017 -1.107493,0.28141 -1.076081,0.0816 -2.150898,0.25655 -3.228898,0.26539 -1.214885,-0.45925 -2.040186,-1.55305 -2.624087,-2.66687 -0.119534,-0.20352 -0.213514,-0.50121 -0.467712,-0.55792 -0.301207,0.0663 -0.323236,0.50068 -0.11217,0.67866 0.543301,1.10092 1.119933,2.18707 1.775896,3.2255 0.03147,0.39828 -0.417147,0.56198 -0.732954,0.63744 -0.880607,0.289 -1.843807,0.1688 -2.702261,-0.139 -0.174895,0.0828 0.03733,0.28395 0.165783,0.24346 0.892574,0.25348 1.873996,0.53593 2.779361,0.17681 1.680908,-0.48536 3.447806,-0.45782 5.169804,-0.67104 0.396119,-0.0258 0.804212,-0.10435 1.195621,-0.0607 0.258622,0.17296 0.09689,0.58604 -0.169892,0.65383 -1.182195,0.92335 -2.645706,1.4166 -3.798035,2.38009 -0.624147,0.73386 -0.675614,1.8947 -0.107956,2.67538 0.240308,0.0127 0.166873,-0.30338 0.110972,-0.44329 -0.161208,-0.69291 0.0342,-1.50828 0.639619,-1.93061 0.584169,-0.4904 1.317813,-0.73899 1.995014,-1.06666 0.497758,0.0887 0.548111,0.73593 0.982615,0.9244 0.57744,0.32609 1.355699,0.29236 1.798876,0.84524 0.04233,0.0607 0.177287,0.20919 0.07294,0.0613 -0.43884,-0.56935 -1.170165,-0.74239 -1.78617,-1.04526 -0.488574,-0.40181 -0.368581,-1.23039 0.125637,-1.5749 0.35659,-0.35239 0.643036,-0.79825 1.079381,-1.05642 0.498933,-0.14986 0.939139,0.24709 1.254072,0.57787 1.035423,0.96321 2.002674,2.09746 2.39181,3.48345 0.08138,0.44146 0.122452,0.94711 -0.115761,1.34395 -0.622109,0.39598 -1.389536,0.2415 -2.085776,0.27777 -1.184765,-0.0284 -2.437826,-0.002 -3.497752,0.59611 -0.912596,0.44113 -1.761072,0.99914 -2.631662,1.51505 -0.131996,0.22215 0.263069,0.38256 0.377129,0.17994 1.379193,-0.80588 2.858577,-1.61377 4.495604,-1.65165 0.772435,-0.0293 1.551072,-0.0289 2.320316,0.013 0.224163,0.10806 0.15221,0.46791 -0.0868,0.50651 -0.956275,0.6254 -2.076323,0.92362 -3.075702,1.46734 -0.855252,0.4142 -1.697172,1.03926 -2.005917,1.97762 -0.418121,1.09053 -0.23305,2.32002 0.235209,3.36266 0.242144,0.67568 0.476756,1.35556 0.776984,2.0083 0.262302,0.15403 0.525983,-0.23863 0.361341,-0.45956 -0.215117,-1.46407 -0.571111,-2.96844 -0.240265,-4.443 0.296296,-0.90604 1.164777,-1.4924 2.050957,-1.7325 0.36104,-0.12516 0.712676,-0.34189 1.095907,-0.36238 0.361444,0.18078 0.251248,0.64408 0.245287,0.96992 -0.01,2.06386 0.430133,4.11501 0.269282,6.17973 -0.06186,0.38312 -0.21577,0.75866 -0.177773,1.1525 0.216273,0.16039 0.410858,-0.13304 0.443412,-0.32373 0.287536,-0.54379 0.425265,-1.17944 0.818015,-1.65902 0.755582,-0.35186 1.652355,0.0473 2.137148,0.66633 0.651074,0.64796 1.299091,1.3565 2.173097,1.70075 0.182986,-0.0814 -0.01585,-0.27821 -0.131535,-0.31394 -0.883144,-0.61168 -1.484418,-1.53772 -2.333778,-2.18583 -0.49647,-0.30873 -1.102857,-0.29928 -1.655075,-0.39814 -0.404807,-0.25692 -0.305712,-0.79539 -0.348067,-1.20336 -0.04007,-0.56774 -0.09867,-1.13386 -0.141171,-1.7014 0.539075,0.13087 0.95359,0.53951 1.480301,0.70641 0.756902,0.31115 1.674405,0.33311 2.374951,-0.13312 0.185396,-0.10832 0.435808,-0.23173 0.484843,-0.45185 -0.110834,-0.25845 -0.455475,-0.15086 -0.622122,-0.0131 -0.439116,0.19642 -0.93067,0.43613 -1.418424,0.3256 -0.599395,-0.50397 -0.388667,-1.54817 0.265319,-1.90776 0.711671,-0.4899 1.574234,-0.78732 2.129068,-1.4816 0.242194,-0.27637 0.440097,-0.59504 0.55931,-0.94368 -0.190457,-0.12253 -0.281463,0.17692 -0.379854,0.28637 -0.67891,0.92625 -1.685171,1.52166 -2.644862,2.11229 -0.412269,0.34752 -0.526674,0.90669 -0.641218,1.39953 -0.233114,0.23051 -0.597911,0.0204 -0.720225,-0.22692 -0.438658,-0.49837 -0.866333,-1.08068 -0.931553,-1.75966 0.124884,-1.24059 0.887042,-2.28456 1.584963,-3.2708 0.858607,-1.11302 1.677022,-2.60156 2.836897,-3.15488 1.159878,-0.55331 2.286241,-1.13066 2.568567,-1.73426 0.531336,-1.13592 0.320752,-0.72264 0.342574,-2.15702 -0.135437,-0.62421 -0.30426,-1.34365 0.07218,-1.9201 0.192345,-0.32498 0.53571,-0.67487 0.945214,-0.60802 0.838829,0.16897 1.388208,0.88756 2.046925,1.37125 0.413242,0.3453 0.944348,0.61372 1.491956,0.512 0.226288,-0.0107 0.450422,-0.0507 0.672084,-0.10264 -0.617868,0.14587 -1.298392,0.0456 -1.811337,-0.34323 -0.734272,-0.48409 -1.324428,-1.15629 -2.044023,-1.66012 -0.196826,-0.22221 -0.0034,-0.61069 0.292333,-0.5952 1.070105,-0.1712 2.154063,-0.29399 3.239767,-0.2597 0.441034,0.0258 0.899142,0.0491 1.285021,0.28907 1.190622,0.61025 2.013743,1.75981 3.24001,2.30959 0.874792,0.29659 1.82027,-0.071 2.540839,-0.57713 0.443728,-0.32002 0.868765,-0.6721 1.267624,-1.04397 0.134972,-0.19127 -0.153998,-0.32441 -0.305935,-0.23396 -0.27487,0.17389 -0.539546,0.36562 -0.822227,0.5304 -0.588976,0.36253 -1.221888,0.74858 -1.930945,0.77471 -0.988015,-0.0672 -1.798397,-0.73643 -2.433929,-1.44327 -0.240813,-0.23403 -0.50415,-0.44813 -0.708062,-0.71724 0.186489,-0.52422 0.789792,-0.66941 1.149372,-1.04226 1.288528,-1.12526 1.974342,-2.76098 2.410899,-4.37841 0.222004,-0.7572 0.476443,-1.5068 0.631849,-2.28166 -0.008,-0.0179 -0.01352,-0.0396 -0.03283,-0.0489 z"
         style="opacity:1;fill:#6d9ca9;fill-opacity:1;fill-rule:nonzero;stroke:none;stroke-width:0.52916664;stroke-linecap:square;stroke-linejoin:bevel;stroke-miterlimit:4;stroke-dasharray:none;stroke-dashoffset:0;stroke-opacity:0.48019804;paint-order:normal" />
    </clipPath>
    <filter
       inkscape:collect="always"
       style="color-interpolation-filters:sRGB"
       id="filter911"
       x="-0.068848662"
       width="1.1376973"
       y="-0.053166822"
       height="1.1063336">
      <feGaussianBlur
         inkscape:collect="always"
         stdDeviation="0.31801503"
         id="feGaussianBlur913" />
    </filter>
    <clipPath
       clipPathUnits="userSpaceOnUse"
       id="clipPath915">
      <path
         style="opacity:1;fill:#74a1ad;fill-opacity:1;fill-rule:nonzero;stroke:none;stroke-width:0.52916664;stroke-linecap:square;stroke-linejoin:bevel;stroke-miterlimit:4;stroke-dasharray:none;stroke-dashoffset:0;stroke-opacity:0.48019804;paint-order:normal"
         d="m 153.30181,149.59335 c -0.0526,-0.0371 -0.13728,-0.003 -0.1494,0.0601 -0.21678,0.23748 -0.42825,0.48024 -0.65683,0.70656 -0.2249,0.0479 -0.449,0.10603 -0.67465,0.14634 -0.07,-0.0456 -0.0384,-0.13946 -0.0501,-0.20835 -0.0388,-0.55802 -0.11919,-1.11219 -0.21356,-1.66324 -0.0223,-0.0566 -0.12337,-0.0181 -0.10309,0.039 -0.0134,0.51388 0.009,1.04039 -0.13662,1.53994 -0.17222,0.30656 -0.47988,0.50543 -0.7913,0.65042 -0.34689,0.18746 -0.68925,0.38067 -1.02525,0.58707 -0.15814,-0.0288 -0.24616,-0.18976 -0.27259,-0.33575 -0.0379,-0.2119 0.0765,-0.42461 0.24241,-0.55122 0.16987,-0.16301 0.28667,-0.39764 0.25862,-0.63741 -0.008,-0.20022 -0.0726,-0.39639 -0.17703,-0.56679 -0.0924,-0.0742 -0.24804,0.0414 -0.20265,0.15128 0.035,0.16075 0.0842,0.3179 0.12288,0.47777 -0.0497,0.18813 -0.18321,0.33792 -0.31804,0.47181 -0.12607,0.0601 -0.62942,0.97688 -0.66207,0.84464 -0.32776,3.14565 -1.2017,0.58802 -2.47483,2.49925 -0.74844,1.14879 0.74968,1.73635 -0.21364,2.92657 -0.0545,0.0394 -0.75259,1.14539 -0.80846,1.18275 -0.22115,-0.008 -0.39967,-0.15888 -0.55124,-0.30498 -0.24305,-0.23083 -0.48342,-0.46792 -0.76168,-0.65687 -0.25125,-0.0618 -0.51713,-0.0209 -0.75639,0.069 -0.0408,0.11049 0.0793,0.23321 0.19076,0.2031 0.28635,-0.008 0.55713,0.15261 0.72516,0.37815 0.23314,0.24298 0.46491,0.48723 0.70032,0.72798 0.0189,0.12117 -0.0572,0.22774 -0.0902,0.33922 -0.11155,0.27234 -0.23667,0.547 -0.25793,0.8446 -0.0374,0.24458 -0.13581,0.49146 -0.32981,0.65362 -0.20556,0.202 -0.46723,0.33388 -0.73179,0.44109 -0.0666,0.0635 0.0387,0.18256 0.11098,0.1278 0.35049,-0.13382 0.69136,-0.29099 1.03583,-0.43924 0.14131,-0.2537 0.2209,-0.53969 0.24214,-0.82877 0.18097,-0.5282 0.52477,-0.99553 0.96286,-1.33979 0.0577,-0.10018 0.23044,-0.0834 0.26819,0.0257 0.17944,0.2736 0.28353,0.58705 0.4433,0.87139 l 0.49333,1.00172 c 0.11592,0.45154 7.9e-4,0.94974 -0.28342,1.31648 -0.0461,0.0821 -0.0921,0.16411 -0.13817,0.2462 0.0866,0.0833 0.24214,0.059 0.30865,-0.0379 0.18195,-0.14913 0.36389,-0.29826 0.54583,-0.4474 0.30698,0.18345 0.49991,0.49398 0.71643,0.7682 0.0488,0.0655 0.0977,0.13092 0.14657,0.19644 -0.0435,0.31411 -0.20382,0.61084 -0.445,0.81713 -0.0338,0.0506 0.062,0.10789 0.0899,0.0535 0.17283,-0.18242 0.34127,-0.36893 0.50782,-0.55709 -0.0839,-0.48202 -0.3419,-0.91332 -0.64425,-1.29004 -0.0542,-0.0783 -0.10835,-0.15664 -0.16252,-0.23494 0.0331,-0.65626 -0.16543,-1.32187 -0.55433,-1.85166 -0.0271,-0.0755 0.0619,-0.15803 0.13556,-0.12773 0.27623,0.0146 0.5525,0.0291 0.82872,0.0437 0.29242,0.25039 0.51193,0.57004 0.73751,0.87855 0.0963,0.0381 0.19298,-0.10173 0.12443,-0.17844 -0.17518,-0.33533 -0.41914,-0.627 -0.65328,-0.92177 -0.43746,-0.17022 -0.91724,-0.17359 -1.36029,-0.32409 -0.25644,-0.16586 -0.36225,-0.50389 -0.29718,-0.79493 0.0702,-0.59094 0.51693,-1.11641 1.08876,-1.28132 0.53727,-0.20243 1.09505,-0.34531 1.65732,-0.45846 0.57697,0.0368 1.14513,0.24205 1.60185,0.59859 0.27858,0.32582 0.34699,0.80643 0.19517,1.204 -0.0238,0.0535 -0.10112,0.0775 -0.14477,0.0332 -0.12672,-0.0824 -0.22886,-0.2022 -0.37268,-0.25775 -0.23714,-0.10874 -0.50497,-0.0951 -0.75811,-0.0708 -0.26186,0.0213 -0.53382,0.0409 -0.78584,-0.0498 -0.11758,-0.0353 -0.22848,-0.0888 -0.33977,-0.13987 -0.0893,-0.0117 -0.11799,0.14807 -0.0273,0.16396 0.49901,0.17111 1.03346,0.2034 1.557,0.18269 0.2676,0.0222 0.51001,0.21144 0.60505,0.46126 -0.15949,0.21238 -0.42118,0.31927 -0.6774,0.35579 -0.061,0.0176 -0.12167,0.0359 -0.18229,0.0548 -0.0237,0.0566 -0.0251,0.12216 -0.002,0.17932 0.56703,0.13191 1.19535,-0.23835 1.36422,-0.7934 0.0367,-0.11212 0.0753,-0.22371 0.11294,-0.33557 0.10257,-0.034 0.19086,0.058 0.23681,0.1393 0.15317,0.22047 0.28678,0.45352 0.4235,0.68428 0.008,0.26329 -0.10155,0.51133 -0.21672,0.74187 -0.16847,0.29711 -0.42456,0.54477 -0.53223,0.87519 -0.0966,0.25944 -0.13687,0.53832 -0.12888,0.81456 0.0308,0.0626 0.14374,0.0298 0.13535,-0.0395 0.0886,-0.59213 0.36299,-1.13325 0.64346,-1.65473 0.0606,-0.11587 0.12117,-0.23165 0.1817,-0.34749 0.10505,-0.063 0.25426,-0.0279 0.32293,0.0727 l 0.68489,0.51361 c 0.10612,-0.0214 0.12225,-0.19239 0.0243,-0.23593 -0.57398,-0.50559 -1.00875,-1.15079 -1.3421,-1.83501 -0.18847,-0.35418 -0.39633,-0.69747 -0.60148,-1.04207 -0.004,-0.10876 0.10219,-0.19831 0.20738,-0.19342 0.35499,-0.0845 0.71242,-0.15923 1.07281,-0.21663 0.45395,0.16265 0.80715,0.53391 1.02314,0.95702 0.18112,0.34967 0.33208,0.71367 0.4981,1.07049 0.0617,0.0818 0.21676,0.002 0.18106,-0.0959 -0.0356,-0.34226 -0.17354,-0.66131 -0.26314,-0.99087 -0.0821,-0.2634 -0.17244,-0.52442 -0.27908,-0.77898 -0.27974,-0.32518 -0.65431,-0.56354 -1.06108,-0.69629 -0.22442,0.005 -0.44501,0.0515 -0.66766,0.0754 -0.47494,0.0657 -0.94749,0.1473 -1.42061,0.22492 -0.052,0.0256 -0.12543,-0.0184 -0.12046,-0.0778 0.42395,-0.3681 0.8798,-0.72328 1.41852,-0.90402 0.4665,-0.15162 0.95845,-0.18772 1.44086,-0.25989 0.0917,0.041 0.18091,-0.11195 0.0949,-0.1682 -0.11948,-0.0766 -0.26459,-0.0245 -0.39607,-0.0338 -0.60519,0.014 -1.22515,0.0936 -1.77235,0.36788 -0.41708,0.21943 -0.80883,0.48236 -1.20559,0.73566 -0.24524,0.0692 -0.51661,-0.14283 -0.52168,-0.39467 -0.004,-0.55592 -0.36008,-2.20012 0.29806,-2.30257 0.23289,0.0324 0.4659,0.0639 0.69902,0.0946 0.10513,0.0747 0.18121,0.18054 0.26512,0.2767 0.0208,0.16342 -0.0918,0.29889 -0.17549,0.42673 -0.10908,0.15279 -0.25071,0.30685 -0.25333,0.50572 0.005,0.0792 0.009,0.15823 0.014,0.23738 0.0463,0.0621 0.15557,0.009 0.14322,-0.0653 0.0515,-0.33371 0.26375,-0.60835 0.45366,-0.87628 0.0714,-0.11373 0.0567,-0.26217 -0.0104,-0.37404 -0.0183,-0.0483 0.0188,-0.10253 0.0695,-0.107 0.16338,-0.0598 0.33795,-0.0788 0.50866,-0.10711 0.19749,-0.0275 0.39583,-0.0485 0.5933,-0.0761 0.19597,0.0667 0.33077,0.2347 0.46412,0.38389 0.0816,0.10126 0.15114,0.21139 0.21877,0.32223 0.0838,0.0711 0.2221,-0.0386 0.17915,-0.13766 -0.0265,-0.23876 -0.17326,-0.43828 -0.29523,-0.63727 -0.0432,-0.0639 -0.0905,-0.12492 -0.13629,-0.18689 -0.55099,-0.13711 -1.12543,-0.10109 -1.68403,-0.0379 -0.28165,0.0132 -0.56345,0.0311 -0.84557,0.0259 -0.08,-0.0341 -0.0608,-0.16756 0.0233,-0.18242 0.7044,-0.38787 1.34679,-0.88862 2.09244,-1.20007 0.31053,-0.13434 0.66268,-0.18993 0.93542,-0.40275 0.22911,-0.1798 0.3565,-0.44902 0.50395,-0.69281 0.004,-0.01 0.004,-0.0218 -0.004,-0.0302 z"
         id="path917"
         inkscape:connector-curvature="0"
         sodipodi:nodetypes="cccccccccccccccccccccccccccsccsccccscscccccsccccscccccccscccccccccccccccccccccccsccccccccccccccccccccccccccccccsccscccccccscccsccc" />
    </clipPath>
    <linearGradient
       inkscape:collect="always"
       xlink:href="#linearGradient927"
       id="linearGradient929"
       x1="81.544365"
       y1="141.71715"
       x2="125.23761"
       y2="142.50264"
       gradientUnits="userSpaceOnUse"
       gradientTransform="translate(1.9746317,-85.46938)" />
    <clipPath
       clipPathUnits="userSpaceOnUse"
       id="clipPath945">
      <path
         style="opacity:1;fill:#6d9ca9;fill-opacity:1;fill-rule:nonzero;stroke:none;stroke-width:0.52916664;stroke-linecap:square;stroke-linejoin:bevel;stroke-miterlimit:4;stroke-dasharray:none;stroke-dashoffset:0;stroke-opacity:0.48019804;paint-order:normal"
         d="m 93.575168,126.87872 c -0.421926,-0.0342 -0.665951,0.41276 -0.710986,0.7756 -0.616185,1.70347 -1.47035,3.3386 -2.626725,4.73784 -1.155004,1.01603 -2.75527,1.38392 -4.259646,1.29127 -0.508373,0.002 -1.018421,0.0637 -1.524865,0.0312 -0.257141,-0.21715 -0.02694,-0.553 -0.02408,-0.82269 0.165518,-0.89431 0.266557,-1.81412 0.564073,-2.67362 0.835102,-0.94797 2.15687,-1.29189 3.381922,-1.27406 0.436044,-0.0225 0.872107,-0.045 1.308127,-0.0675 0.197837,-0.2931 -0.197932,-0.65746 -0.495919,-0.53292 -1.286015,-0.0226 -2.600704,0.0895 -3.814199,0.53038 -1.106178,0.71337 -1.699588,2.02229 -1.751417,3.30587 -0.136491,0.63384 -0.139126,1.31774 -0.427882,1.90945 -0.475059,0.49603 -0.916752,1.05048 -1.51515,1.40332 -1.249661,0.035 -2.548869,-0.25891 -3.5599,-1.01972 -0.522091,-0.67877 -0.181186,-1.75273 0.56827,-2.10847 1.121418,-0.8064 2.453851,-1.40916 3.281884,-2.54945 0.381095,-0.532 0.664625,-1.12728 0.853545,-1.75459 -0.179803,-0.21432 -0.514794,-0.0137 -0.560527,0.21861 -0.766025,1.44206 -2.051288,2.57078 -3.525409,3.25499 -0.208106,0.11244 -0.433586,0.30906 -0.677717,0.26832 -0.105251,-0.161 0.02175,-0.38691 0.03724,-0.5697 0.221065,-1.28558 0.48722,-2.60039 0.311674,-3.90262 -0.449863,-1.5955 -1.136383,-3.12456 -2.034175,-4.51854 -0.282297,-0.18474 -0.596638,0.29736 -0.345985,0.49756 0.706853,1.54546 1.365025,3.17964 1.371991,4.90193 0.0066,0.29861 0.08214,0.65277 -0.09593,0.90953 -0.331419,0.19458 -0.647461,-0.12507 -0.955055,-0.22051 -0.707459,-0.31915 -1.470774,-0.57499 -2.079811,-1.07165 -0.854781,-0.974 -1.466805,-2.13033 -2.002522,-3.30243 -0.257496,-0.20423 -0.650272,0.20436 -0.441455,0.45572 0.39592,1.43234 1.019619,2.88599 2.209308,3.83557 0.744304,0.58535 1.687885,0.87636 2.512457,1.3432 0.442751,0.41518 0.406437,1.08472 0.299386,1.63116 -0.02942,0.27155 0.01786,0.61822 -0.223575,0.80645 -0.302654,0.078 -0.418219,-0.27217 -0.563632,-0.46011 -0.657719,-0.90137 -1.775684,-1.45043 -2.900351,-1.3584 -0.158512,0.002 -0.410613,-0.0778 -0.508815,0.074 0.07945,0.20631 0.361778,0.11349 0.532579,0.16757 0.619319,0.0976 1.309889,0.10657 1.82186,0.51245 0.86604,0.86406 1.607527,1.91638 1.874804,3.12665 -0.03263,0.72984 -0.62112,1.24981 -1.138669,1.68908 -0.539528,0.50324 -0.971431,1.12701 -1.484421,1.65907 -0.662583,0.42615 -1.634469,0.0615 -1.915576,-0.65825 -0.69797,-1.15299 -0.666676,-2.54348 -0.884049,-3.83177 -0.113067,-0.74585 -0.219861,-1.57996 -0.803717,-2.11396 -0.38072,-0.34798 -0.879332,-0.63038 -1.411605,-0.55512 -0.209714,0.21516 0.04637,0.57787 0.316103,0.54437 0.538729,0.15449 0.941731,0.66321 0.971396,1.2217 0.171884,0.83441 0.153901,1.69744 0.178928,2.5418 -0.39392,0.34014 -0.997929,0.20383 -1.399863,-0.0537 -0.390509,-0.28884 -0.492932,-0.79225 -0.632685,-1.22386 -0.158642,-0.15485 -0.412839,0.0655 -0.334161,0.25367 0.06072,0.71443 0.427098,1.47734 1.137936,1.7361 0.495792,0.17843 1.122884,0.25857 1.403776,0.76617 0.100182,0.23277 0.34108,0.46791 0.255495,0.73638 -0.267671,0.33421 -0.739738,0.2017 -1.107493,0.2814 -1.076079,0.0816 -2.150897,0.25656 -3.228897,0.2654 -1.214885,-0.45926 -2.040186,-1.55305 -2.624087,-2.66688 -0.119534,-0.20352 -0.213514,-0.5012 -0.467712,-0.55791 -0.301207,0.0663 -0.323236,0.50067 -0.11217,0.67865 0.543301,1.10093 1.119933,2.18707 1.775896,3.22551 0.03147,0.39828 -0.417147,0.56198 -0.732954,0.63744 -0.880607,0.28899 -1.843807,0.16879 -2.702261,-0.139 -0.174895,0.0828 0.03733,0.28394 0.165783,0.24346 0.892574,0.25347 1.873996,0.53592 2.779361,0.17681 1.680908,-0.48536 3.447805,-0.45783 5.169803,-0.67105 0.396121,-0.0258 0.804212,-0.10434 1.195623,-0.0607 0.25862,0.17295 0.09689,0.58604 -0.169894,0.65383 -1.182196,0.92334 -2.645707,1.41659 -3.798034,2.38009 -0.624147,0.73386 -0.675614,1.8947 -0.107956,2.67537 0.240308,0.0127 0.166873,-0.30337 0.110972,-0.44328 -0.161208,-0.69292 0.0342,-1.50828 0.639619,-1.93062 0.58417,-0.4904 1.317812,-0.73898 1.995013,-1.06666 0.497758,0.0887 0.548111,0.73594 0.982615,0.92441 0.57744,0.32608 1.355698,0.29236 1.798875,0.84524 0.04233,0.0607 0.17729,0.20918 0.07294,0.0613 -0.438838,-0.56935 -1.170165,-0.74239 -1.786171,-1.04526 -0.488571,-0.40181 -0.36858,-1.23039 0.125638,-1.57491 0.356589,-0.35238 0.643038,-0.79824 1.079381,-1.05642 0.498932,-0.14986 0.939141,0.2471 1.254072,0.57788 1.035423,0.96321 2.002673,2.09746 2.391809,3.48345 0.08138,0.44146 0.122455,0.9471 -0.11576,1.34395 -0.62211,0.39598 -1.389536,0.2415 -2.085774,0.27777 -1.184767,-0.0284 -2.437829,-0.002 -3.497755,0.59611 -0.912595,0.44113 -1.761072,0.99913 -2.63166,1.51505 -0.131996,0.22215 0.263069,0.38255 0.377129,0.17994 1.379192,-0.80588 2.858578,-1.61377 4.495602,-1.65165 0.772436,-0.0293 1.551073,-0.0289 2.320317,0.013 0.224163,0.10806 0.152209,0.46791 -0.0868,0.50651 -0.956276,0.6254 -2.076323,0.92362 -3.075702,1.46734 -0.855253,0.4142 -1.697173,1.03926 -2.005918,1.97762 -0.418121,1.09053 -0.23305,2.32002 0.23521,3.36266 0.242144,0.67568 0.476755,1.35556 0.776983,2.0083 0.262303,0.15403 0.525984,-0.23863 0.361342,-0.45956 -0.215117,-1.46407 -0.571112,-2.96844 -0.240266,-4.443 0.296296,-0.90604 1.164778,-1.4924 2.050957,-1.7325 0.36104,-0.12516 0.712677,-0.34189 1.095907,-0.36238 0.361445,0.18078 0.251249,0.64408 0.245288,0.96992 -0.01,2.06386 0.430133,4.11501 0.269282,6.17973 -0.06186,0.38312 -0.21577,0.75866 -0.177774,1.1525 0.216273,0.16039 0.410859,-0.13304 0.443413,-0.32373 0.287536,-0.54379 0.425265,-1.17944 0.818015,-1.65902 0.755581,-0.35186 1.652355,0.0473 2.137148,0.66633 0.651073,0.64796 1.299091,1.3565 2.173097,1.70075 0.182986,-0.0814 -0.01585,-0.27821 -0.131535,-0.31394 -0.883145,-0.61168 -1.484418,-1.53772 -2.333779,-2.18583 -0.496469,-0.30873 -1.102857,-0.29928 -1.655074,-0.39814 -0.404807,-0.25692 -0.305713,-0.79539 -0.348067,-1.20336 -0.04007,-0.56774 -0.09867,-1.13386 -0.141171,-1.7014 0.539075,0.13087 0.95359,0.53951 1.480301,0.70641 0.756901,0.31115 1.674405,0.33311 2.37495,-0.13312 0.185396,-0.10832 0.435809,-0.23173 0.484844,-0.45185 -0.110834,-0.25845 -0.455475,-0.15086 -0.622123,-0.0131 -0.439116,0.19642 -0.930669,0.43613 -1.418423,0.3256 -0.599395,-0.50397 -0.388668,-1.54817 0.265319,-1.90776 0.711671,-0.4899 1.574233,-0.78732 2.129067,-1.4816 0.242195,-0.27637 0.440098,-0.59504 0.559311,-0.94368 -0.190458,-0.12253 -0.281464,0.17692 -0.379854,0.28637 -0.678911,0.92625 -1.685171,1.52166 -2.644863,2.11229 -0.412268,0.34752 -0.526674,0.90669 -0.641217,1.39953 -0.233114,0.23051 -0.597911,0.0204 -0.720225,-0.22692 -0.438658,-0.49837 -0.866333,-1.08068 -0.931553,-1.75966 0.124883,-1.24059 0.887042,-2.28456 1.584962,-3.2708 0.858608,-1.11302 1.677022,-2.60156 2.836897,-3.15488 1.159878,-0.55331 2.286241,-1.13066 2.568567,-1.73426 0.531337,-1.13592 0.320752,-0.72264 0.342575,-2.15702 -0.135438,-0.62421 -0.30426,-1.34365 0.07218,-1.9201 0.192344,-0.32498 0.53571,-0.67487 0.945213,-0.60802 0.838827,0.16897 1.388208,0.88756 2.046925,1.37125 0.413243,0.3453 0.944349,0.61372 1.491957,0.512 0.226287,-0.0107 0.450421,-0.0507 0.672084,-0.10264 -0.617868,0.14587 -1.298393,0.0456 -1.811338,-0.34323 -0.734271,-0.48409 -1.324427,-1.15629 -2.044022,-1.66012 -0.196827,-0.22221 -0.0034,-0.61069 0.292332,-0.5952 1.070105,-0.1712 2.154063,-0.29399 3.239768,-0.2597 0.441034,0.0258 0.899141,0.0491 1.28502,0.28907 1.190623,0.61025 2.013744,1.75981 3.240011,2.30959 0.874792,0.29659 1.82027,-0.071 2.540839,-0.57713 0.443727,-0.32002 0.868764,-0.6721 1.267624,-1.04397 0.134972,-0.19127 -0.153998,-0.32441 -0.305935,-0.23396 -0.274871,0.17389 -0.539547,0.36562 -0.822227,0.5304 -0.588976,0.36253 -1.221889,0.74858 -1.930945,0.77471 -0.988016,-0.0672 -1.798397,-0.73643 -2.433929,-1.44327 -0.240813,-0.23403 -0.50415,-0.44813 -0.708062,-0.71724 0.186489,-0.52422 0.789792,-0.66941 1.149371,-1.04226 1.288529,-1.12526 1.974342,-2.76098 2.410899,-4.37841 0.222004,-0.7572 0.476443,-1.5068 0.631849,-2.28166 -0.008,-0.0179 -0.01352,-0.0396 -0.03283,-0.0489 z"
         id="path947"
         inkscape:connector-curvature="0"
         sodipodi:nodetypes="ccccccccsccccccccccccccccccccccccccccccccsccccccccccccccccccccccccsccccccccccccccsccccccccccccccscccccccsccccccccccccccscccczscccccccccccccsccsccccccc" />
    </clipPath>
    <filter
       inkscape:collect="always"
       style="color-interpolation-filters:sRGB"
       id="filter963"
       x="-0.10700528"
       width="1.2140106"
       y="-0.13658714"
       height="1.2731743">
      <feGaussianBlur
         inkscape:collect="always"
         stdDeviation="0.16173041"
         id="feGaussianBlur965" />
    </filter>
    <clipPath
       clipPathUnits="userSpaceOnUse"
       id="clipPath967">
      <ellipse
         ry="1.1762903"
         rx="1.9811201"
         cy="161.22662"
         cx="-0.84351546"
         id="ellipse969"
         style="opacity:1;fill:#000000;fill-opacity:0.29353237;fill-rule:nonzero;stroke:none;stroke-width:1.5;stroke-linecap:round;stroke-linejoin:bevel;stroke-miterlimit:4;stroke-dasharray:none;stroke-dashoffset:0;stroke-opacity:1;paint-order:fill markers stroke" />
    </clipPath>
    <linearGradient
       inkscape:collect="always"
       xlink:href="#linearGradient927"
       id="linearGradient997"
       gradientUnits="userSpaceOnUse"
       gradientTransform="translate(68.840029,-67.402959)"
       x1="81.544365"
       y1="141.71715"
       x2="107.11671"
       y2="142.1555" />
  </defs>
  <sodipodi:namedview
     inkscape:window-maximized="1"
     inkscape:window-y="24"
     inkscape:window-x="0"
     inkscape:window-height="1416"
     inkscape:window-width="3440"
     showgrid="false"
     inkscape:current-layer="layer1"
     inkscape:document-units="mm"
     inkscape:cy="82.166711"
     inkscape:cx="182.80313"
     inkscape:zoom="1.9054308"
     inkscape:pageshadow="2"
     inkscape:pageopacity="0.0"
     borderopacity="1.0"
     bordercolor="#666666"
     pagecolor="#ffffff"
     id="base"
     inkscape:snap-global="false"
     fit-margin-top="10"
     fit-margin-left="10"
     fit-margin-right="10"
     fit-margin-bottom="10" />
  <metadata
     id="metadata9780">
    <rdf:RDF>
      <cc:Work
         rdf:about="">
        <dc:format>image/svg+xml</dc:format>
        <dc:type
           rdf:resource="http://purl.org/dc/dcmitype/StillImage" />
        <dc:title>Neuron</dc:title>
        <dc:date>01/04/2019</dc:date>
        <dc:creator>
          <cc:Agent>
            <dc:title>Felipe Delestro</dc:title>
          </cc:Agent>
        </dc:creator>
        <dc:subject>
          <rdf:Bag>
            <rdf:li>Neuron</rdf:li>
          </rdf:Bag>
        </dc:subject>
      </cc:Work>
    </rdf:RDF>
  </metadata>
  <g
     inkscape:label="Layer 1"
     inkscape:groupmode="layer"
     id="layer1"
     transform="translate(-53.032877,-56.095286)">
    <g
       id="g1052"
       transform="translate(2.9456122,3.9274829)">
      <path
         sodipodi:nodetypes="cccccccccccccccccccccccccccsccsccccscscccccsccccscccccccscccccccccccccccccccccccsccccccccccccccccccccccccccccccsccscccccccscccsccc"
         inkscape:connector-curvature="0"
         id="path1005"
         d="m 132.73162,82.286117 c -0.0526,-0.0371 -0.13728,-0.003 -0.1494,0.0601 -0.21678,0.23748 -0.42825,0.48024 -0.65683,0.70656 -0.2249,0.0479 -0.449,0.10603 -0.67465,0.14634 -0.07,-0.0456 -0.0384,-0.13946 -0.0501,-0.20835 -0.0388,-0.55802 -0.11919,-1.11219 -0.21356,-1.66324 -0.0223,-0.0566 -0.12337,-0.0181 -0.10309,0.039 -0.0134,0.51388 0.009,1.04039 -0.13662,1.53994 -0.17222,0.30656 -0.47988,0.50543 -0.7913,0.65042 -0.34689,0.18746 -0.68925,0.38067 -1.02525,0.58707 -0.15814,-0.0288 -0.24616,-0.18976 -0.27259,-0.33575 -0.0379,-0.2119 0.0765,-0.42461 0.24241,-0.55122 0.16987,-0.16301 0.28667,-0.39764 0.25862,-0.63741 -0.008,-0.20022 -0.0726,-0.39639 -0.17703,-0.56679 -0.0924,-0.0742 -0.24804,0.0414 -0.20265,0.15128 0.035,0.16075 0.0842,0.3179 0.12288,0.47777 -0.0497,0.18813 -0.18321,0.33792 -0.31804,0.47181 -0.12607,0.0601 -0.62942,0.97688 -0.66207,0.84464 -0.32776,3.14565 -1.2017,0.58802 -2.47483,2.49925 -0.74844,1.14879 0.74968,1.73635 -0.21364,2.92657 -0.0545,0.0394 -0.75259,1.14539 -0.80846,1.18275 -0.22115,-0.008 -0.39967,-0.15888 -0.55124,-0.30498 -0.24305,-0.23083 -0.48342,-0.46792 -0.76168,-0.65687 -0.25125,-0.0618 -0.51713,-0.0209 -0.75639,0.069 -0.0408,0.11049 0.0793,0.23321 0.19076,0.2031 0.28635,-0.008 0.55713,0.15261 0.72516,0.37815 0.23314,0.24298 0.46491,0.48723 0.70032,0.72798 0.0189,0.12117 -0.0572,0.22774 -0.0902,0.33922 -0.11155,0.27234 -0.23667,0.547 -0.25793,0.8446 -0.0374,0.24458 -0.13581,0.49146 -0.32981,0.65362 -0.20556,0.202 -0.46723,0.33388 -0.73179,0.44109 -0.0666,0.0635 0.0387,0.18256 0.11098,0.1278 0.35049,-0.13382 0.69136,-0.29099 1.03583,-0.43924 0.14131,-0.2537 0.2209,-0.53969 0.24214,-0.82877 0.18097,-0.5282 0.52477,-0.99553 0.96286,-1.33979 0.0577,-0.10018 0.23044,-0.0834 0.26819,0.0257 0.17944,0.2736 0.28353,0.58705 0.4433,0.87139 l 0.49333,1.00172 c 0.11592,0.45154 7e-4,0.94974 -0.28342,1.31648 -0.0461,0.0821 -0.0921,0.16411 -0.13817,0.2462 0.0866,0.0833 0.24214,0.059 0.30865,-0.0379 0.18195,-0.14913 0.36389,-0.29826 0.54583,-0.4474 0.30698,0.18345 0.49991,0.49398 0.71643,0.7682 0.0488,0.0655 0.0977,0.13092 0.14657,0.19644 -0.0435,0.31411 -0.20382,0.61084 -0.445,0.81713 -0.0338,0.0506 0.062,0.10789 0.0899,0.0535 0.17283,-0.18242 0.34127,-0.36893 0.50782,-0.55709 -0.0839,-0.48202 -0.3419,-0.91332 -0.64425,-1.29004 -0.0542,-0.0783 -0.10835,-0.15664 -0.16252,-0.23494 0.0331,-0.65626 -0.16543,-1.32187 -0.55433,-1.85166 -0.0271,-0.0755 0.0619,-0.15803 0.13556,-0.12773 0.27623,0.0146 0.5525,0.0291 0.82872,0.0437 0.29242,0.25039 0.51193,0.57004 0.73751,0.87855 0.0963,0.0381 0.19298,-0.10173 0.12443,-0.17844 -0.17518,-0.33533 -0.41914,-0.627 -0.65328,-0.92177 -0.43746,-0.17022 -0.91724,-0.17359 -1.36029,-0.32409 -0.25644,-0.16586 -0.36225,-0.50389 -0.29718,-0.79493 0.0702,-0.59094 0.51693,-1.11641 1.08876,-1.28132 0.53727,-0.20243 1.09505,-0.34531 1.65732,-0.45846 0.57697,0.0368 1.14513,0.24205 1.60185,0.59859 0.27858,0.32582 0.34699,0.80643 0.19517,1.204 -0.0238,0.0535 -0.10112,0.0775 -0.14477,0.0332 -0.12672,-0.0824 -0.22886,-0.2022 -0.37268,-0.25775 -0.23714,-0.10874 -0.50497,-0.0951 -0.75811,-0.0708 -0.26186,0.0213 -0.53382,0.0409 -0.78584,-0.0498 -0.11758,-0.0353 -0.22848,-0.0888 -0.33977,-0.13987 -0.0893,-0.0117 -0.11799,0.14807 -0.0273,0.16396 0.49901,0.17111 1.03346,0.2034 1.557,0.18269 0.2676,0.0222 0.51001,0.21144 0.60505,0.46126 -0.15949,0.21238 -0.42118,0.31927 -0.6774,0.35579 -0.061,0.0176 -0.12167,0.0359 -0.18229,0.0548 -0.0237,0.0566 -0.0251,0.12216 -0.002,0.17932 0.56703,0.13191 1.19535,-0.23835 1.36422,-0.7934 0.0367,-0.11212 0.0753,-0.22371 0.11294,-0.33557 0.10257,-0.034 0.19086,0.058 0.23681,0.1393 0.15317,0.22047 0.28678,0.45352 0.4235,0.68428 0.008,0.26329 -0.10155,0.51133 -0.21672,0.74187 -0.16847,0.29711 -0.42456,0.54477 -0.53223,0.87519 -0.0966,0.25944 -0.13687,0.53832 -0.12888,0.81456 0.0308,0.0626 0.14374,0.0298 0.13535,-0.0395 0.0886,-0.59213 0.36299,-1.13325 0.64346,-1.65473 0.0606,-0.11587 0.12117,-0.23165 0.1817,-0.34749 0.10505,-0.063 0.25426,-0.0279 0.32293,0.0727 l 0.68489,0.51361 c 0.10612,-0.0214 0.12225,-0.19239 0.0243,-0.23593 -0.57398,-0.50559 -1.00875,-1.15079 -1.3421,-1.83501 -0.18847,-0.35418 -0.39633,-0.69747 -0.60148,-1.04207 -0.004,-0.10876 0.10219,-0.19831 0.20738,-0.19342 0.35499,-0.0845 0.71242,-0.15923 1.07281,-0.21663 0.45395,0.16265 0.80715,0.53391 1.02314,0.95702 0.18112,0.34967 0.33208,0.71367 0.4981,1.07049 0.0617,0.0818 0.21676,0.002 0.18106,-0.0959 -0.0356,-0.34226 -0.17354,-0.66131 -0.26314,-0.99087 -0.0821,-0.2634 -0.17244,-0.52442 -0.27908,-0.77898 -0.27974,-0.32518 -0.65431,-0.56354 -1.06108,-0.69629 -0.22442,0.005 -0.44501,0.0515 -0.66766,0.0754 -0.47494,0.0657 -0.94749,0.1473 -1.42061,0.22492 -0.052,0.0256 -0.12543,-0.0184 -0.12046,-0.0778 0.42395,-0.3681 0.8798,-0.72328 1.41852,-0.90402 0.4665,-0.15162 0.95845,-0.18772 1.44086,-0.25989 0.0917,0.041 0.18091,-0.11195 0.0949,-0.1682 -0.11948,-0.0766 -0.26459,-0.0245 -0.39607,-0.0338 -0.60519,0.014 -1.22515,0.0936 -1.77235,0.36788 -0.41708,0.21943 -0.80883,0.48236 -1.20559,0.73566 -0.24524,0.0692 -0.51661,-0.14283 -0.52168,-0.39467 -0.004,-0.55592 -0.36008,-2.20012 0.29806,-2.30257 0.23289,0.0324 0.4659,0.0639 0.69902,0.0946 0.10513,0.0747 0.18121,0.18054 0.26512,0.2767 0.0208,0.16342 -0.0918,0.29889 -0.17549,0.42673 -0.10908,0.15279 -0.25071,0.30685 -0.25333,0.50572 0.005,0.0792 0.009,0.15823 0.014,0.23738 0.0463,0.0621 0.15557,0.009 0.14322,-0.0653 0.0515,-0.33371 0.26375,-0.60835 0.45366,-0.87628 0.0714,-0.11373 0.0567,-0.26217 -0.0104,-0.37404 -0.0183,-0.0483 0.0188,-0.10253 0.0695,-0.107 0.16338,-0.0598 0.33795,-0.0788 0.50866,-0.10711 0.19749,-0.0275 0.39583,-0.0485 0.5933,-0.0761 0.19597,0.0667 0.33077,0.2347 0.46412,0.38389 0.0816,0.10126 0.15114,0.21139 0.21877,0.32223 0.0838,0.0711 0.2221,-0.0386 0.17915,-0.13766 -0.0265,-0.23876 -0.17326,-0.43828 -0.29523,-0.63727 -0.0432,-0.0639 -0.0905,-0.12492 -0.13629,-0.18689 -0.55099,-0.13711 -1.12543,-0.10109 -1.68403,-0.0379 -0.28165,0.0132 -0.56345,0.0311 -0.84557,0.0259 -0.08,-0.0341 -0.0608,-0.16756 0.0233,-0.18242 0.7044,-0.38787 1.34679,-0.88862 2.09244,-1.20007 0.31053,-0.13434 0.66268,-0.18993 0.93542,-0.40275 0.22911,-0.1798 0.3565,-0.44902 0.50395,-0.69281 0.004,-0.01 0.004,-0.0218 -0.004,-0.0302 z"
         style="opacity:1;fill:#74a1ad;fill-opacity:1;fill-rule:nonzero;stroke:none;stroke-width:0.52916664;stroke-linecap:square;stroke-linejoin:bevel;stroke-miterlimit:4;stroke-dasharray:none;stroke-dashoffset:0;stroke-opacity:0.48019804;paint-order:normal" />
      <path
         sodipodi:nodetypes="cc"
         inkscape:original-d="m 79.060245,80.137277 c 10.619888,11.66502 31.261625,-6.18202 46.836285,6.39171"
         inkscape:path-effect="#path-effect1013"
         inkscape:connector-curvature="0"
         id="path1011"
         d="m 80.595861,78.739246 c -0.240745,0.432052 0.620568,2.286238 3.282967,3.52935 1.313237,0.621538 2.920301,0.991403 4.830649,1.101077 3.783734,0.217657 7.460588,-0.563836 11.755823,-1.29061 1.25385,-0.216267 2.48003,-0.418933 3.70817,-0.58957 3.27389,-0.454878 6.35206,-0.653346 9.37814,-0.403122 0,0 0,10e-7 0,10e-7 3.95644,0.330931 7.09309,1.554907 9.32423,2.703024 2.19211,1.128031 3.41708,2.074442 3.65909,1.903988 -0.44453,0.567177 -0.88988,1.133767 -1.33603,1.699768 0.13744,-0.28511 -0.80499,-1.415881 -2.85078,-2.591494 -2.07611,-1.193029 -5.10765,-2.299361 -8.8719,-2.548551 0,10e-7 0,0 0,0 -2.73755,-0.182712 -5.52357,0.02991 -8.53688,0.422071 -1.4041,0.182732 -2.81105,0.407708 -4.26219,0.651764 -4.375025,0.74106 -7.971788,1.505009 -12.031712,1.479198 -2.05761,-0.01353 -3.847082,-0.290379 -5.472019,-0.796852 -3.179584,-1.004917 -5.002396,-2.63465 -5.648785,-2.473975 1.023742,-0.932023 2.047484,-1.864046 3.071227,-2.796067 z"
         style="fill:#74a1ad;fill-opacity:1;fill-rule:evenodd;stroke:none;stroke-width:0.26458332px;stroke-linecap:butt;stroke-linejoin:miter;stroke-opacity:1" />
      <path
         sodipodi:nodetypes="ccccccccsccccccccccccccccccccccccccccccccsccccccccccccccccccccccccsccccccccccccccsccccccccccccccscccccccsccccccccccccccscccczscccccccccccccsccsccccccc"
         inkscape:connector-curvature="0"
         id="path1015"
         d="m 91.790968,66.276202 c -0.42193,-0.0342 -0.66595,0.41277 -0.71099,0.7756 -0.61618,1.70347 -1.47035,3.3386 -2.62672,4.73785 -1.155,1.016025 -2.75527,1.383905 -4.25965,1.291275 -0.50837,0.002 -1.01842,0.0637 -1.52486,0.0312 -0.25714,-0.21715 -0.0269,-0.55299 -0.0241,-0.82269 0.16552,-0.894315 0.26656,-1.814125 0.56407,-2.673615 0.83511,-0.94797 2.15687,-1.2919 3.38193,-1.27407 0.43604,-0.0225 0.8721,-0.045 1.30812,-0.0675 0.19784,-0.29311 -0.19793,-0.65746 -0.49592,-0.53293 -1.28601,-0.0226 -2.6007,0.0895 -3.8142,0.53039 -1.10617,0.71337 -1.69958,2.02228 -1.75141,3.30586 -0.1365,0.633855 -0.13913,1.317755 -0.42788,1.909455 -0.47506,0.49603 -0.91676,1.05048 -1.51515,1.40332 -1.24967,0.035 -2.54887,-0.25891 -3.5599,-1.01972 -0.5221,-0.67877 -0.18119,-1.75273 0.56826,-2.108465 1.12142,-0.8064 2.45386,-1.40917 3.28189,-2.54946 0.38109,-0.532 0.66462,-1.12727 0.85355,-1.75459 -0.17981,-0.21432 -0.5148,-0.0137 -0.56053,0.21861 -0.76603,1.44207 -2.05129,2.57078 -3.52541,3.255 -0.20811,0.11243 -0.43359,0.30905 -0.67772,0.26831 -0.10525,-0.16099 0.0218,-0.38691 0.0372,-0.5697 0.22107,-1.28558 0.48722,-2.60039 0.31167,-3.90262 -0.44986,-1.59549 -1.13638,-3.12456 -2.03417,-4.51853 -0.2823,-0.18475 -0.59664,0.29736 -0.34599,0.49755 0.70686,1.54547 1.36503,3.17965 1.372,4.90193 0.007,0.29861 0.0821,0.65277 -0.0959,0.90953 -0.33142,0.19458 -0.64747,-0.12506 -0.95506,-0.22051 -0.70746,-0.31915 -1.47077,-0.57499 -2.07981,-1.07164 -0.85478,-0.97401 -1.4668,-2.13034 -2.00252,-3.30244 -0.2575,-0.20423 -0.65027,0.20436 -0.44146,0.45572 0.39592,1.43235 1.01962,2.88599 2.20931,3.83557 0.74431,0.58535 1.68789,0.87636 2.51246,1.3432 0.44275,0.41519 0.40643,1.08472 0.29939,1.63117 -0.0294,0.27155 0.0179,0.61822 -0.22358,0.806455 -0.30266,0.078 -0.41822,-0.272185 -0.56363,-0.460125 -0.65772,-0.90136 -1.77569,-1.45043 -2.90035,-1.3584 -0.15852,0.002 -0.41062,-0.0778 -0.50882,0.074 0.0795,0.20632 0.36178,0.11349 0.53258,0.16758 0.61932,0.0976 1.30989,0.10656 1.82186,0.51244 0.86604,0.86407 1.60753,1.916385 1.87481,3.126665 -0.0326,0.72983 -0.62113,1.24981 -1.13868,1.68907 -0.53952,0.50324 -0.97143,1.12701 -1.48442,1.65907 -0.66258,0.42616 -1.63447,0.0615 -1.91557,-0.65825 -0.69797,-1.15299 -0.66668,-2.54348 -0.88405,-3.83177 -0.11307,-0.74584 -0.21986,-1.579955 -0.80372,-2.113965 -0.38072,-0.34797 -0.87933,-0.63038 -1.4116,-0.55511 -0.20972,0.21515 0.0464,0.57786 0.3161,0.54437 0.53873,0.15449 0.94173,0.6632 0.9714,1.221695 0.17188,0.8344 0.1539,1.69743 0.17893,2.54179 -0.39393,0.34015 -0.99793,0.20383 -1.39987,-0.0537 -0.39051,-0.28884 -0.49293,-0.79225 -0.63268,-1.22386 -0.15864,-0.15484 -0.41284,0.0655 -0.33416,0.25367 0.0607,0.71444 0.42709,1.47734 1.13793,1.7361 0.49579,0.17843 1.12289,0.25857 1.40378,0.76617 0.10018,0.23277 0.34108,0.46792 0.25549,0.73638 -0.26767,0.33421 -0.73974,0.2017 -1.10749,0.28141 -1.07608,0.0816 -2.1509,0.25655 -3.2289,0.26539 -1.21488,-0.45925 -2.04019,-1.55305 -2.62408,-2.66687 -0.11954,-0.20352 -0.21352,-0.50121 -0.46772,-0.55792 -0.3012,0.0663 -0.32323,0.50068 -0.11217,0.67866 0.5433,1.10092 1.11994,2.18707 1.7759,3.2255 0.0315,0.39828 -0.41715,0.56198 -0.73295,0.63744 -0.88061,0.289 -1.84381,0.1688 -2.70227,-0.139 -0.17489,0.0828 0.0373,0.28395 0.16579,0.24346 0.89257,0.25348 1.87399,0.53593 2.77936,0.17681 1.68091,-0.48536 3.4478,-0.45782 5.1698,-0.67104 0.39612,-0.0258 0.80421,-0.10435 1.19562,-0.0607 0.25862,0.17296 0.0969,0.58604 -0.16989,0.65383 -1.18219,0.92335 -2.64571,1.4166 -3.79803,2.38009 -0.62415,0.73386 -0.67562,1.8947 -0.10796,2.67538 0.24031,0.0127 0.16687,-0.30338 0.11097,-0.44329 -0.16121,-0.69291 0.0342,-1.50828 0.63962,-1.93061 0.58417,-0.4904 1.31781,-0.73899 1.99501,-1.06666 0.49776,0.0887 0.54812,0.73593 0.98262,0.9244 0.57744,0.32609 1.3557,0.29236 1.79888,0.84524 0.0423,0.0607 0.17728,0.20919 0.0729,0.0613 -0.43885,-0.56935 -1.17017,-0.74239 -1.78618,-1.04526 -0.48857,-0.40181 -0.36857,-1.23039 0.12564,-1.5749 0.35659,-0.35239 0.64304,-0.79825 1.07938,-1.05642 0.49894,-0.14986 0.93914,0.24709 1.25408,0.57787 1.03542,0.96321 2.00267,2.09746 2.3918,3.48345 0.0814,0.44146 0.12246,0.94711 -0.11575,1.34395 -0.62211,0.39598 -1.38954,0.2415 -2.08578,0.27777 -1.18477,-0.0284 -2.43783,-0.002 -3.49775,0.59611 -0.9126,0.44113 -1.76108,0.99914 -2.63167,1.51505 -0.13199,0.22215 0.26307,0.38256 0.37713,0.17994 1.3792,-0.80588 2.85858,-1.61377 4.49561,-1.65165 0.77243,-0.0293 1.55107,-0.0289 2.32031,0.013 0.22417,0.10806 0.15221,0.46791 -0.0868,0.50651 -0.95627,0.6254 -2.07632,0.92362 -3.0757,1.46734 -0.85525,0.4142 -1.69717,1.03926 -2.00591,1.97762 -0.41813,1.09053 -0.23306,2.32002 0.23521,3.36266 0.24214,0.67568 0.47675,1.35556 0.77698,2.0083 0.2623,0.15403 0.52598,-0.23863 0.36134,-0.45956 -0.21512,-1.46407 -0.57111,-2.96844 -0.24027,-4.443 0.2963,-0.90604 1.16478,-1.4924 2.05096,-1.7325 0.36104,-0.12516 0.71268,-0.34189 1.09591,-0.36238 0.36144,0.18078 0.25125,0.64408 0.24529,0.96992 -0.01,2.06386 0.43013,4.11501 0.26928,6.17973 -0.0619,0.38312 -0.21577,0.75866 -0.17778,1.1525 0.21628,0.16039 0.41086,-0.13304 0.44342,-0.32373 0.28753,-0.54379 0.42526,-1.17944 0.81801,-1.65902 0.75558,-0.35186 1.65236,0.0473 2.13715,0.66633 0.65107,0.64796 1.29909,1.3565 2.1731,1.70075 0.18298,-0.0814 -0.0159,-0.27821 -0.13154,-0.31394 -0.88314,-0.61168 -1.48442,-1.53772 -2.33378,-2.18583 -0.49647,-0.30873 -1.10285,-0.29928 -1.65507,-0.39814 -0.40481,-0.25692 -0.30571,-0.79539 -0.34807,-1.20336 -0.0401,-0.56774 -0.0987,-1.13386 -0.14117,-1.7014 0.53908,0.13087 0.95359,0.53951 1.4803,0.70641 0.7569,0.31115 1.67441,0.33311 2.37495,-0.13312 0.1854,-0.10832 0.43581,-0.23173 0.48485,-0.45185 -0.11084,-0.25845 -0.45548,-0.15086 -0.62213,-0.0131 -0.43911,0.19642 -0.93067,0.43612 -1.41842,0.32559 -0.5994,-0.50397 -0.38867,-1.54816 0.26532,-1.90775 0.71167,-0.4899 1.57423,-0.78732 2.12907,-1.4816 0.24219,-0.27638 0.44009,-0.59505 0.55931,-0.94368 -0.19046,-0.12253 -0.28147,0.17691 -0.37986,0.28637 -0.67891,0.92625 -1.68517,1.52166 -2.64486,2.11229 -0.41227,0.34751 -0.52667,0.90669 -0.64122,1.39953 -0.23311,0.23051 -0.59791,0.0204 -0.72022,-0.22693 -0.43866,-0.49836 -0.86634,-1.08067 -0.93156,-1.75965 0.12489,-1.2406 0.88705,-2.28456 1.58497,-3.2708 0.8586,-1.11302 1.67702,-2.60157 2.8369,-3.15489 1.15987,-0.55331 2.28624,-1.13066 2.56856,-1.73425 0.53134,-1.13592 0.32075,-0.72264 0.34258,-2.15703 -0.13544,-0.62421 -0.30426,-1.34365 0.0722,-1.92009 0.19234,-0.32498 0.53571,-0.67487 0.94521,-0.60803 0.83883,0.16897 1.38821,0.88757 2.04693,1.37125 0.41324,0.3453 0.94434,0.61373 1.49195,0.51201 0.22629,-0.0107 0.45042,-0.0507 0.67209,-0.10264 -0.61787,0.14587 -1.2984,0.0456 -1.81134,-0.34323 -0.73427,-0.48409 -1.32443,-1.15629 -2.04402,-1.66013 -0.19683,-0.22221 -0.003,-0.61069 0.29233,-0.59519 1.0701,-0.1712 2.15406,-0.294 3.23976,-0.25971 0.44104,0.0258 0.89915,0.0491 1.28503,0.28907 1.19062,0.61026 2.01374,1.75981 3.24001,2.3096 0.87479,0.29659 1.82027,-0.071 2.54084,-0.57714 0.44372,-0.32001 0.86876,-0.67209 1.26762,-1.04396 0.13497,-0.19127 -0.154,-0.32442 -0.30594,-0.23396 -0.27487,0.17389 -0.53954,0.36561 -0.82222,0.5304 -0.58898,0.36252 -1.22189,0.74857 -1.93095,0.77471 -0.98801,-0.0672 -1.79839,-0.73644 -2.43393,-1.44327 -0.24081,-0.23403 -0.50415,-0.44813 -0.70806,-0.71724 0.18649,-0.52422 0.78979,-0.66941 1.14937,-1.04227 1.28853,-1.125255 1.97434,-2.760965 2.4109,-4.378405 0.22201,-0.7572 0.47645,-1.50679 0.63185,-2.28166 -0.008,-0.0179 -0.0135,-0.0396 -0.0328,-0.0489 z"
         style="opacity:1;fill:#74a1ad;fill-opacity:1;fill-rule:nonzero;stroke:none;stroke-width:0.52916664;stroke-linecap:square;stroke-linejoin:bevel;stroke-miterlimit:4;stroke-dasharray:none;stroke-dashoffset:0;stroke-opacity:0.48019804;paint-order:normal" />
      <g
         id="g1025"
         transform="translate(-1.0512995,-59.460696)">
        <ellipse
           transform="rotate(-30)"
           ry="1.1762902"
           rx="1.9811201"
           cy="157.61838"
           cx="-1.5947089"
           id="ellipse1021"
           style="opacity:1;fill:#000000;fill-opacity:0.29353237;fill-rule:nonzero;stroke:none;stroke-width:1.5;stroke-linecap:round;stroke-linejoin:bevel;stroke-miterlimit:4;stroke-dasharray:none;stroke-dashoffset:0;stroke-opacity:1;paint-order:fill markers stroke" />
      </g>
    </g>
  </g>
</svg>
